<svg width="400" height="400" viewBox="0 0 400 400" fill="none" xmlns="http://www.w3.org/2000/svg">
<rect width="400" height="400" rx="200" fill="#50AF95"/>
<path fill-rule="evenodd" clip-rule="evenodd" d="M97.777 79.3716L39.2407 202.327C39.0179 202.785 38.9473 203.301 39.0392 203.801C39.1311 204.302 39.3807 204.76 39.7514 205.108L197.844 356.599C198.293 357.029 198.891 357.27 199.513 357.27C200.135 357.27 200.734 357.029 201.183 356.599L359.275 205.117C359.646 204.769 359.895 204.311 359.987 203.811C360.079 203.311 360.009 202.794 359.786 202.337L301.25 79.3811C301.061 78.9681 300.757 78.6183 300.374 78.3734C299.992 78.1286 299.547 77.999 299.093 78.0002H99.9523C99.4961 77.9945 99.0479 78.121 98.6619 78.3643C98.2759 78.6077 97.9686 78.9575 97.777 79.3716Z" fill="white"/>
<path fill-rule="evenodd" clip-rule="evenodd" d="M219.825 214.954C218.69 215.04 212.826 215.389 199.745 215.389C189.341 215.389 181.954 215.077 179.363 214.954C139.156 213.186 109.146 206.187 109.146 197.807C109.146 189.427 139.156 182.437 179.363 180.64V207.984C181.992 208.173 189.521 208.617 199.925 208.617C212.41 208.617 218.661 208.097 219.787 207.993V180.659C259.908 182.447 289.853 189.446 289.853 197.807C289.853 206.168 259.918 213.167 219.787 214.945L219.825 214.954ZM219.825 177.831V153.363H275.817V116.051H123.371V153.363H179.353V177.822C133.85 179.912 99.6309 188.926 99.6309 199.727C99.6309 210.528 133.85 219.532 179.353 221.632V300.04H219.815V221.603C265.214 219.513 299.377 210.509 299.377 199.717C299.377 188.926 265.243 179.921 219.815 177.822L219.825 177.831Z" fill="#50AF95"/>
</svg>
